<svg xmlns="http://www.w3.org/2000/svg" width="190" height="32" fill="none" viewBox="0 0 190 32"><path fill="#fff" d="M6.898 16.724H4.81v2.136H2.866v-2.136H.778v-1.836h2.088V12.74H4.81v2.148h2.088Zm3.031-3.576V11.24h3.324V20h-2.136v-6.852Zm11.2 5.208q.407-.324.371-.3 1.176-.972 1.848-1.596.684-.624 1.152-1.308t.468-1.332q0-.492-.228-.768t-.684-.276a.86.86 0 0 0-.72.348q-.252.336-.252.96h-1.98q.024-1.02.432-1.704a2.6 2.6 0 0 1 1.092-1.008q.684-.324 1.512-.324 1.428 0 2.148.732.732.732.732 1.908 0 1.284-.876 2.388-.876 1.092-2.232 2.136h3.24v1.668h-6.024Zm8.999-4.644q.048-1.284.84-1.98t2.148-.696q.9 0 1.536.312.648.312.972.852.336.54.336 1.212 0 .792-.396 1.296a2 2 0 0 1-.924.672v.048q.684.228 1.08.756t.396 1.356q0 .744-.348 1.32-.336.564-.996.888-.648.324-1.548.324-1.44 0-2.304-.708-.852-.708-.9-2.136h1.992q.012.528.3.84.288.3.84.3.468 0 .72-.264.264-.276.264-.72 0-.576-.372-.828-.36-.264-1.164-.264h-.384v-1.668h.384q.612 0 .984-.204.384-.216.384-.756 0-.432-.24-.672t-.66-.24q-.456 0-.684.276a1.26 1.26 0 0 0-.252.684Zm9.241 4.728v-1.656l3.792-5.424h2.292v5.304h.984v1.776h-.984V20h-2.052v-1.56Zm4.176-4.824-2.016 3.048h2.016Zm16.608-.588H56.41v1.656q.24-.264.672-.432t.936-.168q.9 0 1.488.408.6.408.876 1.056t.276 1.404q0 1.404-.792 2.232-.792.816-2.232.816-.96 0-1.668-.324-.708-.336-1.092-.924a2.66 2.66 0 0 1-.42-1.356h2.004q.072.372.348.624.276.24.756.24.564 0 .84-.36t.276-.96q0-.588-.288-.9t-.84-.312q-.408 0-.672.204a.9.9 0 0 0-.348.516h-1.98v-5.22h5.604Zm9.805 0h-3.744v1.656q.24-.264.672-.432t.936-.168q.9 0 1.488.408.6.408.876 1.056t.276 1.404q0 1.404-.792 2.232-.792.816-2.232.816-.96 0-1.668-.324-.708-.336-1.092-.924a2.66 2.66 0 0 1-.42-1.356h2.004q.072.372.348.624.276.24.756.24.564 0 .84-.36t.276-.96q0-.588-.288-.9t-.84-.312q-.408 0-.672.204a.9.9 0 0 0-.348.516h-1.98v-5.22h5.604Zm9.805 0h-3.744v1.656q.24-.264.672-.432t.936-.168q.9 0 1.488.408.6.408.876 1.056t.276 1.404q0 1.404-.792 2.232-.792.816-2.232.816-.96 0-1.668-.324-.708-.336-1.092-.924a2.66 2.66 0 0 1-.42-1.356h2.004q.072.372.348.624.276.24.756.24.564 0 .84-.36t.276-.96q0-.588-.288-.9t-.84-.312q-.408 0-.672.204a.9.9 0 0 0-.348.516h-1.98v-5.22h5.604Zm9 1.908v1.704h-5.28v-1.704Zm9.765-1.908h-3.744v1.656q.24-.264.672-.432t.936-.168q.9 0 1.488.408.6.408.876 1.056t.276 1.404q0 1.404-.792 2.232-.792.816-2.232.816-.96 0-1.668-.324-.708-.336-1.092-.924a2.66 2.66 0 0 1-.42-1.356h2.004q.072.372.348.624.276.24.756.24.564 0 .84-.36t.276-.96q0-.588-.288-.9t-.84-.312q-.408 0-.672.204a.9.9 0 0 0-.348.516h-1.98v-5.22h5.604Zm9.805 0h-3.744v1.656q.24-.264.672-.432t.936-.168q.9 0 1.488.408.6.408.876 1.056t.276 1.404q0 1.404-.792 2.232-.792.816-2.232.816-.96 0-1.668-.324-.708-.336-1.092-.924a2.66 2.66 0 0 1-.42-1.356h2.004q.072.372.348.624.276.24.756.24.564 0 .84-.36t.276-.96q0-.588-.288-.9t-.84-.312q-.408 0-.672.204a.9.9 0 0 0-.348.516h-1.98v-5.22h5.604Zm9.001 1.908v1.704h-5.28v-1.704Zm9.765-1.908h-3.744v1.656q.24-.264.672-.432t.936-.168q.9 0 1.488.408.6.408.876 1.056t.276 1.404q0 1.404-.792 2.232-.792.816-2.232.816-.96 0-1.668-.324-.708-.336-1.092-.924a2.66 2.66 0 0 1-.42-1.356h2.004q.072.372.348.624.276.24.756.24.564 0 .84-.36t.276-.96q0-.588-.288-.9t-.84-.312q-.408 0-.672.204a.9.9 0 0 0-.348.516h-1.98v-5.22h5.604Zm9.804 0h-3.744v1.656q.24-.264.672-.432t.936-.168q.9 0 1.488.408.6.408.876 1.056t.276 1.404q0 1.404-.792 2.232-.792.816-2.232.816-.96 0-1.668-.324-.708-.336-1.092-.924a2.66 2.66 0 0 1-.42-1.356h2.004q.072.372.348.624.276.24.756.24.564 0 .84-.36t.276-.96q0-.588-.288-.9t-.84-.312q-.408 0-.672.204a.9.9 0 0 0-.348.516h-1.98v-5.22h5.604Z"/><g clip-path="url(#clip0_41317_192)"><path fill="#fff" d="M184.68 20.507a15.3 15.3 0 0 1-4.707-.747 1.3 1.3 0 0 0-1.346.32l-2.094 2.627c-3.773-1.8-7.306-5.2-9.186-9.107l2.6-2.213c.36-.374.466-.894.32-1.36a14.9 14.9 0 0 1-.747-4.707c0-.72-.6-1.32-1.32-1.32h-4.613c-.72 0-1.587.32-1.587 1.32C162 17.707 172.307 28 184.68 28c.947 0 1.32-.84 1.32-1.573v-4.6c0-.72-.6-1.32-1.32-1.32"/></g><defs><clipPath id="clip0_41317_192"><path fill="#fff" d="M158 0h32v32h-32Z"/></clipPath></defs></svg>